<svg xmlns="http://www.w3.org/2000/svg" width="29" height="29" viewBox="0 0 29 29">
  <g id="Group_2" data-name="Group 2" transform="translate(-0.071 0.5)">
    <path id="Stroke_1" data-name="Stroke 1" d="M14,28A14,14,0,1,0,0,14,14,14,0,0,0,14,28" transform="translate(0.571)" fill="none" stroke="#010202" stroke-miterlimit="10" stroke-width="1"/>
    <path id="Fill_3" data-name="Fill 3" d="M0,4.629H1.5V3.223a3.652,3.652,0,0,1,.483-2.169A2.7,2.7,0,0,1,4.311,0,9.761,9.761,0,0,1,7,.26L6.626,2.4A5.231,5.231,0,0,0,5.418,2.23c-.584,0-1.106.2-1.106.765V4.629H6.7L6.536,6.724H4.311V14H1.5V6.724H0Z" transform="translate(10.571 7)" fill="#010202"/>
  </g>
</svg>
