<svg xmlns="http://www.w3.org/2000/svg" width="45" height="45" viewBox="0 0 45 45">
  <g id="Group_5" data-name="Group 5" transform="translate(-0.5)">
    <path id="Fill_1" data-name="Fill 1" d="M11.879,19a.532.532,0,0,1-.212-.045c-.225-.1-5.541-2.525-8.225-7.143H.549a.582.582,0,0,1,0-1.163h2.3a10.981,10.981,0,0,1-.726-2.225C1.259,4.288,3.37,1.36,5.7.389A4.885,4.885,0,0,1,7.581,0a5.3,5.3,0,0,1,4.3,2.452A5.3,5.3,0,0,1,16.179,0a4.883,4.883,0,0,1,1.884.388c2.327.971,4.438,3.9,3.576,8.035a11.091,11.091,0,0,1-.726,2.225H23.45a.582.582,0,0,1,0,1.163H20.318c-2.684,4.619-8,7.042-8.224,7.143A.535.535,0,0,1,11.879,19ZM4.771,11.812h0a19.649,19.649,0,0,0,7.108,5.969,19.729,19.729,0,0,0,7.107-5.969H14.33a.539.539,0,0,1-.466-.274L11.916,8.222,9.968,11.538a.539.539,0,0,1-.466.274H4.771ZM11.916,6.54a.547.547,0,0,1,.466.274l2.252,3.834h5.031a9.7,9.7,0,0,0,.9-2.476c.723-3.472-1-5.908-2.906-6.7a3.889,3.889,0,0,0-1.485-.3,4.464,4.464,0,0,0-3.822,2.625.553.553,0,0,1-.945,0A4.466,4.466,0,0,0,7.584,1.169a3.884,3.884,0,0,0-1.485.3c-1.907.8-3.629,3.232-2.905,6.7a9.759,9.759,0,0,0,.9,2.476H9.2L11.45,6.815A.547.547,0,0,1,11.916,6.54Z" transform="translate(11.5 14)" fill="#c9774f"/>
    <path id="Fill_3" data-name="Fill 3" d="M22.5,45A22.31,22.31,0,0,1,9.312,40.713H4.543a.563.563,0,0,1,0-1.125H7.888A22.485,22.485,0,0,1,35.333,4.034H40.1a.563.563,0,0,1,0,1.125h-3.28A22.491,22.491,0,0,1,22.5,45ZM9.445,34.687a.563.563,0,0,1,.562.563v4.579A21.359,21.359,0,0,0,43.875,22.5a21.1,21.1,0,0,0-2.205-9.445,21.656,21.656,0,0,0-5.907-7.3V9.5a.562.562,0,1,1-1.125,0V4.919A21.364,21.364,0,0,0,8.882,38.963V35.249A.563.563,0,0,1,9.445,34.687Z" transform="translate(0.5)" fill="#c9774f"/>
  </g>
</svg>
