<svg xmlns="http://www.w3.org/2000/svg" width="29" height="29" viewBox="0 0 29 29">
  <g id="Group_3" data-name="Group 3" transform="translate(-33.071 0.5)">
    <path id="Stroke_5" data-name="Stroke 5" d="M14,28A14,14,0,1,0,0,14,14,14,0,0,0,14,28" transform="translate(33.571)" fill="none" stroke="#010202" stroke-miterlimit="10" stroke-width="1"/>
    <path id="Stroke_7" data-name="Stroke 7" d="M4,8A4,4,0,1,0,0,4,4,4,0,0,0,4,8" transform="translate(43.571 10)" fill="none" stroke="#010202" stroke-miterlimit="10" stroke-width="1"/>
    <path id="Stroke_9" data-name="Stroke 9" d="M1.5,3A1.5,1.5,0,1,0,0,1.5,1.5,1.5,0,0,0,1.5,3" transform="translate(50.571 7)" fill="none" stroke="#010202" stroke-miterlimit="10" stroke-width="1"/>
    <path id="Stroke_11" data-name="Stroke 11" d="M12.186,17H4.812A4.813,4.813,0,0,1,0,12.187V4.813A4.813,4.813,0,0,1,4.812,0h7.374A4.813,4.813,0,0,1,17,4.813v7.374A4.813,4.813,0,0,1,12.186,17Z" transform="translate(39.571 5)" fill="none" stroke="#010202" stroke-miterlimit="10" stroke-width="1"/>
  </g>
</svg>
