<svg xmlns="http://www.w3.org/2000/svg" xmlns:xlink="http://www.w3.org/1999/xlink" width="44.182" height="37.636" viewBox="0 0 44.182 37.636">
  <defs>
    <clipPath id="clip-path">
      <path id="Clip_2" data-name="Clip 2" d="M0,0H44.182V37.636H0Z" fill="none"/>
    </clipPath>
  </defs>
  <g id="Group_3" data-name="Group 3" clip-path="url(#clip-path)">
    <path id="Fill_1" data-name="Fill 1" d="M26.951,37.636H17.23A16.885,16.885,0,0,1,5.04,32.457,17.836,17.836,0,0,1,.007,19.941V16.782a.566.566,0,0,1,.173-.506.586.586,0,0,1,.4-.166.612.612,0,0,1,.115.01,35.995,35.995,0,0,1,3.957.226,28.8,28.8,0,0,1,.367-6.781.576.576,0,0,1,.307-.531.615.615,0,0,1,.253-.073H5.6A.588.588,0,0,1,5.8,9c3.394.562,5.27.913,7.507,2.154A34.574,34.574,0,0,1,21.674.229.579.579,0,0,1,22.11,0h.057a.577.577,0,0,1,.444.228,34.413,34.413,0,0,1,8.409,10.9c2.132-1.182,3.8-1.54,7.369-2.13a.593.593,0,0,1,.19-.032h.008a.589.589,0,0,1,.275.075.569.569,0,0,1,.3.524,28.752,28.752,0,0,1,.369,6.785,36.077,36.077,0,0,1,3.96-.225.584.584,0,0,1,.1-.009.578.578,0,0,1,.4.16l0,0,0,0a.568.568,0,0,1,.169.506v3.157a17.836,17.836,0,0,1-5.032,12.515A16.883,16.883,0,0,1,26.951,37.636ZM43.019,17.273h0c-7.126.105-12.5,2.147-15.967,6.068-3.622,4.093-4.382,9.336-4.382,13.013a.558.558,0,0,1-.016.139h4.3a15.741,15.741,0,0,0,11.371-4.829,16.706,16.706,0,0,0,4.7-11.723V17.273Zm-41.856,0v2.668a16.706,16.706,0,0,0,4.7,11.723A15.741,15.741,0,0,0,17.23,36.493h4.189a.6.6,0,0,1-.016-.139c0-3.688-.751-8.939-4.328-13.014C13.634,19.419,8.281,17.378,1.163,17.273ZM22.144,1.364h0C16.109,6.986,12.9,12.771,12.611,18.559a17.043,17.043,0,0,1,5.335,4.03,18.379,18.379,0,0,1,4.095,8.546,18.4,18.4,0,0,1,4.142-8.547,17.269,17.269,0,0,1,5.529-4.11c-.3-5.763-3.515-11.52-9.568-17.113ZM6.087,10.206a26.9,26.9,0,0,0-.265,6.3,24.349,24.349,0,0,1,5.666,1.544,19.991,19.991,0,0,1,1.369-5.84C10.886,11.089,9.28,10.738,6.087,10.206Zm32.008,0c-3.093.518-4.654.861-6.623,1.976a19.815,19.815,0,0,1,1.365,5.8A24.7,24.7,0,0,1,38.36,16.5a26.9,26.9,0,0,0-.265-6.3h0Z" fill="#c9774f"/>
  </g>
</svg>
