<svg xmlns="http://www.w3.org/2000/svg" xmlns:xlink="http://www.w3.org/1999/xlink" width="44" height="44" viewBox="0 0 44 44">
  <defs>
    <clipPath id="clip-path">
      <path id="Clip_2" data-name="Clip 2" d="M0,0H44V44H0Z" fill="#c9774f"/>
    </clipPath>
  </defs>
  <g id="Group_3" data-name="Group 3" clip-path="url(#clip-path)">
    <path id="Fill_1" data-name="Fill 1" d="M39.92,44a.473.473,0,0,1-.335-.138L27.071,31.346l-9.165-2.1a9.012,9.012,0,0,1-1.077.043,16.808,16.808,0,0,1-11.74-5.084A16.861,16.861,0,0,1,0,12.444a12.434,12.434,0,0,1,3.552-8.9A12.522,12.522,0,0,1,12.484,0,16.831,16.831,0,0,1,24.2,5.071,6.8,6.8,0,0,1,30.71,8.19l.024.023a.139.139,0,0,1,0,.039A6.841,6.841,0,0,1,29.3,17.167c0,.254-.017.514-.042.773l2.093,9.129L43.861,39.583a.48.48,0,0,1,0,.673l-3.6,3.605A.477.477,0,0,1,39.92,44Zm-9-16.006h0l-2.932,2.933L39.913,42.85l2.932-2.932L30.924,27.994Zm-2.089-7.618h0a11.851,11.851,0,0,1-8.474,8.452l6.8,1.56,3.233-3.234-1.554-6.778ZM12.259.947a11.441,11.441,0,0,0-8.034,3.27,11.5,11.5,0,0,0-3.273,8.23A15.909,15.909,0,0,0,5.765,23.533a15.872,15.872,0,0,0,11.051,4.8,11.477,11.477,0,0,0,8.243-3.282,11.264,11.264,0,0,0,3.246-7.2A6.649,6.649,0,0,1,27,18.43h-.033a9.657,9.657,0,0,1-2.713,5.824,9.737,9.737,0,0,1-6.836,2.783l-.231,0a12.352,12.352,0,0,1-1.326-.071,15.284,15.284,0,0,1-9.041-4.5,15.276,15.276,0,0,1-4.5-9.033A10.148,10.148,0,0,1,5.031,5.023a9.892,9.892,0,0,1,7.137-2.8c.411,0,.831.021,1.251.063a14.932,14.932,0,0,1,8.106,3.625,6.966,6.966,0,0,1,1.311-.578h.072l.148-.043A15.757,15.757,0,0,0,12.475.949Zm8.933,20.912h0l-3.458,3.458.691.692a8.656,8.656,0,0,0,4.817-2.1l-2.05-2.052Zm-7.406.844L11.707,24.8a13.131,13.131,0,0,0,4.005,1.211l.673-.707Zm4.12-4.11-3.443,3.458,2.595,2.595,3.448-3.458Zm-7.391.844L7.869,22.126a15.264,15.264,0,0,0,2.98,2.209l2.29-2.284-2.623-2.614Zm13.819-.721h0l-2.47,2.471,2.051,2.021a8.635,8.635,0,0,0,2.07-4.574,7.282,7.282,0,0,1-1.064.081ZM7.249,16.165h0L4.96,18.449a15.7,15.7,0,0,0,2.208,2.986L9.842,18.76,7.249,16.165Zm7.4-.844h0l-3.457,3.443,2.594,2.6L17.249,17.9l-2.6-2.58Zm5.288,1.23L18.6,17.9l2.595,2.59,2-2c-.187-.048-.383-.109-.616-.191A6.861,6.861,0,0,1,19.938,16.551Zm-8.555-4.5h0L7.921,15.516l2.595,2.59,3.461-3.463-2.595-2.595ZM24.935,5.977a5.927,5.927,0,0,0-1.354.162A10.762,10.762,0,0,1,20.2,15.4a5.875,5.875,0,0,0,6.079,2.222,10.768,10.768,0,0,1,3.391-9.262A5.936,5.936,0,0,0,24.935,5.977ZM3.977,12.892l-.672.715a13.231,13.231,0,0,0,1.2,3.983l2.07-2.075ZM30.166,9.177a9.861,9.861,0,0,0-2.98,8.151,5.879,5.879,0,0,0,2.98-8.151ZM18.083,11.891l-2.757,2.752,2.561,2.619,1.43-1.431c-.045-.06-.084-.123-.122-.185l-.03-.049-.043-.048v-.033A6.849,6.849,0,0,1,18.083,11.891ZM8.112,8.777,4.65,12.239l2.6,2.595,3.457-3.458ZM22.675,6.454c-.157.066-.305.134-.439.2a5.878,5.878,0,0,0-2.541,7.9v.024A9.86,9.86,0,0,0,22.675,6.454Zm-7.152,1.46h0l-3.467,3.462,2.6,2.595,3.461-3.462-2.6-2.595ZM5.389,6.053A8.675,8.675,0,0,0,3.281,10.87l.677.692L7.416,8.1Zm6.856-1.411h0L8.784,8.1l2.6,2.594L14.84,7.24l-2.595-2.6Zm6.229.31L16.189,7.24l2.3,2.285a6.812,6.812,0,0,1,2.218-3.033A15.38,15.38,0,0,0,18.474,4.952ZM10.883,3.258A8.671,8.671,0,0,0,6.07,5.367L8.112,7.408,11.569,3.95l-.686-.692Zm2.732.039-.686.672,2.594,2.595L17.61,4.489a13.3,13.3,0,0,0-4-1.192Z" fill="#c9774f"/>
  </g>
</svg>
